<?xml version="1.0" standalone="no"?>
<!DOCTYPE svg PUBLIC "-//W3C//DTD SVG 20010904//EN"
 "http://www.w3.org/TR/2001/REC-SVG-20010904/DTD/svg10.dtd">
<svg version="1.0" xmlns="http://www.w3.org/2000/svg"
 width="512.000000pt" height="512.000000pt" viewBox="0 0 512.000000 512.000000"
 preserveAspectRatio="xMidYMid meet">

<g transform="translate(0.000000,512.000000) scale(0.100000,-0.100000)"
fill="#000000" stroke="none">
<path d="M466 4949 c-62 -15 -153 -68 -197 -116 -22 -24 -55 -74 -72 -111
l-32 -67 0 -2096 0 -2095 37 -76 c45 -91 103 -147 196 -191 l67 -32 1023 -3
1022 -2 25 24 c33 33 33 79 0 111 l-24 25 -992 0 c-749 0 -1002 3 -1033 12
-55 16 -138 99 -154 154 -18 60 -18 4088 0 4148 16 55 99 138 154 154 60 17
3128 17 3188 0 55 -16 138 -99 154 -154 9 -30 12 -172 12 -513 l0 -472 25 -24
c32 -33 78 -33 111 0 l25 25 -3 502 -3 503 -32 67 c-44 93 -100 151 -191 196
l-76 37 -1595 2 c-942 0 -1612 -3 -1635 -8z"/>
<path d="M585 4535 l-25 -24 0 -751 0 -751 25 -24 24 -25 1271 0 1271 0 24 25
c33 32 33 78 0 110 l-24 25 -1216 0 -1215 0 0 640 0 640 1360 0 1360 0 0 -390
0 -391 25 -24 c15 -16 36 -25 55 -25 19 0 40 9 55 25 l25 24 0 446 0 446 -25
24 -24 25 -1471 0 -1471 0 -24 -25z"/>
<path d="M1065 4135 l-25 -24 0 -351 0 -351 25 -24 c15 -16 36 -25 55 -25 19
0 40 9 55 25 22 21 25 33 25 102 l0 78 98 -97 c53 -53 107 -99 120 -103 34
-10 78 12 92 45 7 16 9 39 5 52 -4 13 -50 67 -103 120 l-96 98 102 103 c86 88
102 109 102 136 0 43 -38 81 -81 81 -27 0 -48 -16 -135 -102 l-104 -102 0 158
c0 153 -1 157 -25 181 -15 16 -36 25 -55 25 -19 0 -40 -9 -55 -25z"/>
<path d="M3065 4135 l-25 -24 0 -351 0 -351 25 -24 c15 -16 36 -25 55 -25 19
0 40 9 55 25 l25 24 0 351 0 351 -25 24 c-15 16 -36 25 -55 25 -19 0 -40 -9
-55 -25z"/>
<path d="M1775 3986 c-41 -18 -83 -69 -90 -109 -4 -18 -5 -118 -3 -224 3 -210
5 -218 72 -267 25 -19 42 -21 166 -21 124 0 141 2 166 21 44 32 66 68 71 117
5 39 2 49 -20 71 -34 34 -79 34 -112 1 -14 -13 -25 -31 -25 -40 0 -12 -15 -15
-80 -15 l-80 0 0 160 0 160 80 0 c65 0 80 -3 80 -15 0 -9 11 -27 25 -40 33
-33 78 -33 112 1 45 45 21 134 -51 188 -24 18 -44 21 -154 24 -91 1 -136 -2
-157 -12z"/>
<path d="M2265 3976 c-33 -33 -33 -79 0 -111 23 -24 29 -25 160 -25 l135 0 0
-39 0 -39 -109 -4 c-118 -3 -141 -12 -185 -72 -18 -23 -21 -42 -21 -126 0 -84
3 -103 21 -126 41 -55 69 -69 156 -73 87 -4 146 9 191 41 27 19 27 19 55 0 98
-68 212 -48 212 38 0 40 -39 80 -78 80 -17 0 -40 9 -53 19 -23 18 -24 25 -29
189 -5 186 -9 198 -74 246 -25 19 -44 21 -191 24 -164 3 -165 3 -190 -22z
m295 -391 c0 -9 -11 -27 -25 -40 -20 -21 -34 -25 -80 -25 l-55 0 0 40 0 40 80
0 c65 0 80 -3 80 -15z"/>
<path d="M3666 3429 c-62 -15 -153 -68 -197 -116 -22 -24 -55 -74 -72 -111
l-32 -67 -3 -207 -4 -208 -41 29 c-198 135 -453 165 -712 84 -149 -47 -283
-131 -389 -243 -80 -85 -117 -138 -166 -242 -73 -153 -102 -329 -80 -486 24
-178 45 -227 370 -881 281 -564 316 -629 365 -681 199 -208 510 -181 685 59
24 34 46 61 49 61 4 0 28 -29 54 -63 146 -193 370 -250 569 -145 126 67 130
73 454 720 178 355 294 599 294 616 0 42 -33 72 -79 72 -24 0 -44 -7 -53 -17
-9 -10 -144 -275 -301 -589 -157 -314 -296 -584 -310 -600 -58 -69 -185 -109
-272 -85 -78 21 -130 64 -221 186 -123 164 -144 166 -254 18 -97 -130 -116
-150 -175 -181 -41 -22 -64 -27 -125 -27 -65 0 -82 4 -128 30 -30 16 -65 42
-79 59 -36 43 -615 1206 -646 1296 -57 173 -58 342 -3 500 38 110 82 176 186
280 72 72 114 105 175 137 252 131 515 120 734 -30 64 -44 106 -57 191 -57 70
0 128 21 187 66 18 14 62 38 96 55 185 86 413 74 622 -34 62 -32 102 -63 175
-137 52 -52 110 -120 128 -152 73 -124 109 -283 97 -430 -6 -85 -6 -88 19
-113 27 -27 70 -33 97 -12 37 28 44 59 43 192 -2 159 -22 247 -93 390 -76 154
-206 294 -356 384 -78 47 -219 99 -307 112 -108 17 -107 16 -62 52 132 107
207 244 221 402 5 69 4 74 -20 99 l-26 26 -283 -1 c-156 -1 -300 -5 -322 -10z
m484 -163 c0 -7 -16 -45 -35 -83 -43 -86 -103 -144 -193 -186 -66 -31 -71 -32
-234 -35 l-168 -4 0 57 c0 32 5 76 12 99 15 51 99 137 148 153 21 6 125 11
253 12 177 1 217 -2 217 -13z m-550 -493 c-25 -14 -53 -33 -62 -41 -17 -14
-18 -12 -18 26 l0 42 63 0 62 0 -45 -27z"/>
<path d="M585 2775 l-25 -24 0 -271 0 -271 25 -24 24 -25 271 0 271 0 24 25
25 24 0 271 0 271 -25 24 -24 25 -271 0 -271 0 -24 -25z m455 -295 l0 -160
-160 0 -160 0 0 160 0 160 160 0 160 0 0 -160z"/>
<path d="M1465 2775 l-25 -24 0 -271 0 -271 25 -24 c23 -24 28 -25 175 -25
147 0 152 1 175 25 33 32 33 78 0 110 -22 23 -32 25 -120 25 l-95 0 0 160 0
160 160 0 c138 0 160 -2 160 -15 0 -27 47 -65 80 -65 19 0 40 9 55 25 22 21
25 33 25 95 0 62 -3 74 -25 95 l-24 25 -271 0 -271 0 -24 -25z"/>
<path d="M3935 2535 c-52 -51 -15 -135 59 -135 103 0 220 -48 303 -124 97 -88
134 -174 137 -320 3 -90 5 -101 25 -118 33 -26 83 -23 110 6 31 33 38 136 17
236 -47 225 -221 401 -452 460 -109 28 -168 27 -199 -5z"/>
<path d="M585 1975 l-25 -24 0 -271 0 -271 25 -24 24 -25 271 0 271 0 24 25
25 24 0 271 0 271 -25 24 -24 25 -271 0 -271 0 -24 -25z m455 -295 l0 -160
-160 0 -160 0 0 160 0 160 160 0 160 0 0 -160z"/>
<path d="M1465 1975 l-25 -24 0 -271 0 -271 25 -24 c24 -25 26 -25 215 -25
189 0 191 0 215 25 33 32 33 78 0 110 -23 24 -29 25 -160 25 l-135 0 0 160 0
160 95 0 c88 0 98 2 120 25 16 15 25 36 25 55 0 19 -9 40 -25 55 -23 24 -28
25 -175 25 -147 0 -152 -1 -175 -25z"/>
<path d="M585 1095 l-25 -24 0 -271 0 -271 25 -24 24 -25 271 0 271 0 24 25
25 24 0 271 0 271 -25 24 -24 25 -271 0 -271 0 -24 -25z m455 -295 l0 -160
-160 0 -160 0 0 160 0 160 160 0 160 0 0 -160z"/>
<path d="M1465 1095 l-25 -24 0 -271 0 -271 25 -24 24 -25 271 0 271 0 24 25
25 24 0 271 0 271 -25 24 -24 25 -271 0 -271 0 -24 -25z m455 -295 l0 -160
-160 0 -160 0 0 160 0 160 160 0 160 0 0 -160z"/>
<path d="M2745 1015 c-50 -49 -15 -135 55 -135 41 0 80 39 80 80 0 41 -39 80
-80 80 -19 0 -40 -9 -55 -25z"/>
<path d="M2905 775 c-50 -49 -15 -135 55 -135 41 0 80 39 80 80 0 41 -39 80
-80 80 -19 0 -40 -9 -55 -25z"/>
</g>
</svg>
