<?xml version="1.0" standalone="no"?>
<!DOCTYPE svg PUBLIC "-//W3C//DTD SVG 20010904//EN"
 "http://www.w3.org/TR/2001/REC-SVG-20010904/DTD/svg10.dtd">
<svg version="1.0" xmlns="http://www.w3.org/2000/svg"
 width="512.000000pt" height="512.000000pt" viewBox="0 0 512.000000 512.000000"
 preserveAspectRatio="xMidYMid meet">

<g transform="translate(0.000000,512.000000) scale(0.100000,-0.100000)"
fill="#000000" stroke="none">
<path d="M1800 4784 c-105 -23 -186 -68 -271 -153 -86 -87 -131 -166 -154
-276 -40 -191 12 -364 154 -506 123 -123 271 -179 431 -164 146 14 123 30 206
-142 l73 -153 -56 -37 c-136 -90 -246 -218 -324 -378 -68 -140 -92 -247 -93
-411 l-1 -132 -165 -36 c-91 -20 -172 -36 -180 -36 -8 0 -28 26 -45 58 -41 81
-163 201 -245 240 -223 109 -465 69 -641 -107 -225 -225 -225 -557 0 -782 225
-225 557 -225 782 0 51 52 86 97 107 141 34 70 62 179 62 247 0 49 -13 43 200
88 69 14 133 29 143 31 13 4 20 -3 29 -28 22 -65 104 -214 150 -274 91 -118
209 -212 353 -280 41 -20 75 -39 75 -43 0 -6 -42 -162 -86 -318 -14 -52 -15
-53 -52 -53 -297 0 -530 -267 -483 -552 34 -207 192 -365 399 -399 312 -52
595 231 543 543 -26 156 -119 281 -268 363 -3 2 96 365 102 375 2 4 33 3 67
-2 77 -12 231 -3 318 17 170 40 328 124 446 237 l42 40 228 -182 c126 -101
235 -188 242 -195 10 -9 9 -20 -8 -59 -75 -176 -34 -384 104 -522 188 -188
484 -188 672 0 188 188 188 484 0 672 -163 163 -410 187 -604 58 -35 -23 -58
-32 -65 -26 -88 67 -467 374 -467 377 0 2 16 33 35 69 87 157 119 286 119 471
-1 173 -25 276 -105 433 -32 64 -59 117 -59 118 0 0 75 63 166 139 l167 139
36 -22 c216 -134 450 -114 617 52 278 278 121 747 -270 808 -306 47 -586 -230
-538 -535 6 -39 21 -96 33 -125 26 -63 45 -39 -161 -210 l-155 -129 -47 42
c-108 97 -267 180 -414 217 -158 39 -408 26 -547 -27 -14 -6 -29 18 -91 148
l-75 156 78 78 c88 89 133 167 156 278 40 191 -12 364 -154 506 -142 142 -319
195 -511 153z m272 -173 c103 -40 199 -147 232 -260 71 -243 -105 -493 -359
-509 -274 -17 -486 247 -409 509 38 128 135 228 263 271 74 24 194 19 273 -11z
m2202 -551 c256 -96 276 -460 31 -585 -52 -26 -69 -30 -144 -30 -106 0 -160
22 -230 94 -196 201 -54 538 226 540 39 1 82 -7 117 -19z m-1349 -724 c85 -23
209 -85 283 -141 129 -97 246 -274 289 -435 24 -90 24 -310 0 -400 -41 -154
-148 -321 -270 -420 -73 -60 -216 -133 -307 -157 -101 -27 -311 -25 -413 5
-223 64 -402 213 -503 417 -65 132 -79 195 -79 355 0 160 14 223 80 355 110
224 308 378 555 430 83 18 283 13 365 -9z m-1893 -805 c103 -40 199 -147 232
-260 73 -251 -122 -511 -384 -511 -169 0 -330 118 -380 279 -66 212 47 433
259 503 74 24 194 19 273 -11z m3402 -951 c256 -96 276 -460 31 -585 -52 -26
-69 -30 -144 -30 -105 0 -159 22 -229 92 -139 139 -116 374 48 488 82 57 198
70 294 35z m-2051 -494 c233 -113 234 -452 2 -571 -52 -26 -69 -30 -144 -30
-105 0 -159 22 -229 92 -163 163 -98 447 120 525 75 26 178 20 251 -16z"/>
<path d="M1847 4549 c-123 -29 -221 -137 -242 -267 -9 -55 8 -97 46 -112 56
-24 109 20 109 89 0 58 83 141 141 141 69 0 113 53 90 109 -20 47 -63 59 -144
40z"/>
<path d="M4100 3991 c-119 -37 -207 -171 -170 -260 33 -81 150 -50 150 40 0
26 43 69 69 69 61 0 103 56 82 109 -19 44 -69 61 -131 42z"/>
<path d="M2402 3113 c-35 -20 -87 -60 -117 -88 -47 -43 -55 -56 -55 -86 0 -24
7 -42 23 -57 35 -33 76 -28 123 14 49 45 135 104 151 104 18 0 53 50 53 75 0
12 -9 34 -21 49 -30 39 -79 35 -157 -11z"/>
<path d="M2112 2715 c-44 -55 -38 -243 11 -378 52 -143 197 -307 272 -307 24
0 39 7 54 26 36 46 28 74 -40 139 -72 70 -110 123 -141 196 -19 46 -22 74 -23
181 -1 109 -4 131 -20 148 -27 30 -88 27 -113 -5z"/>
<path d="M807 2469 c-123 -29 -221 -137 -242 -267 -9 -55 8 -97 46 -112 56
-24 109 20 109 89 0 58 83 141 141 141 69 0 113 53 90 109 -20 47 -63 59 -144
40z"/>
<path d="M4260 1511 c-119 -37 -207 -171 -170 -260 33 -81 150 -50 150 40 0
26 43 69 69 69 61 0 103 56 82 109 -19 44 -69 61 -131 42z"/>
<path d="M2180 1031 c-119 -37 -207 -171 -170 -260 33 -81 150 -50 150 40 0
26 43 69 69 69 61 0 103 56 82 109 -19 44 -69 61 -131 42z"/>
</g>
</svg>
